<mxfile host="app.diagrams.net" modified="2023-03-13T12:03:42.006Z" agent="5.0 (Windows NT 10.0; Win64; x64) AppleWebKit/537.36 (KHTML, like Gecko) Chrome/110.0.0.0 Safari/537.36 OPR/96.0.0.0" etag="hKMmmVYH9T4Bn4-bLa3C" version="21.0.2" type="github">
  <diagram id="kgpKYQtTHZ0yAKxKKP6v" name="Flow-chart">
    <mxGraphModel dx="1817" dy="568" grid="1" gridSize="10" guides="1" tooltips="1" connect="1" arrows="1" fold="1" page="1" pageScale="1" pageWidth="850" pageHeight="1100" math="0" shadow="0">
      <root>
        <mxCell id="0" />
        <mxCell id="1" parent="0" />
        <mxCell id="3nuBFxr9cyL0pnOWT2aG-1" value="PLA" style="shape=table;childLayout=tableLayout;startSize=40;collapsible=0;recursiveResize=0;expand=0;fillColor=none;fontStyle=1" parent="1" vertex="1">
          <mxGeometry x="20" y="40" width="1142" height="638" as="geometry" />
        </mxCell>
        <mxCell id="3nuBFxr9cyL0pnOWT2aG-3" value="Front-End" style="shape=tableRow;horizontal=0;swimlaneHead=0;swimlaneBody=0;top=0;left=0;bottom=0;right=0;fillColor=none;points=[[0,0.5],[1,0.5]];portConstraint=eastwest;startSize=40;collapsible=0;recursiveResize=0;expand=0;fontStyle=1;" parent="3nuBFxr9cyL0pnOWT2aG-1" vertex="1">
          <mxGeometry y="40" width="1142" height="202" as="geometry" />
        </mxCell>
        <mxCell id="KajZSsTYk88KhPLmzA6E-5" value="ERP" style="swimlane;swimlaneHead=0;swimlaneBody=0;connectable=0;fillColor=none;startSize=40;collapsible=0;recursiveResize=0;expand=0;fontStyle=1;" vertex="1" parent="3nuBFxr9cyL0pnOWT2aG-3">
          <mxGeometry x="40" width="292" height="202" as="geometry">
            <mxRectangle width="292" height="202" as="alternateBounds" />
          </mxGeometry>
        </mxCell>
        <mxCell id="KajZSsTYk88KhPLmzA6E-31" value="" style="group" vertex="1" connectable="0" parent="KajZSsTYk88KhPLmzA6E-5">
          <mxGeometry x="170" y="50" width="110" height="70" as="geometry" />
        </mxCell>
        <mxCell id="KajZSsTYk88KhPLmzA6E-21" value="" style="verticalLabelPosition=bottom;verticalAlign=top;html=1;shape=process;whiteSpace=wrap;rounded=1;size=0.14;arcSize=6;" vertex="1" parent="KajZSsTYk88KhPLmzA6E-31">
          <mxGeometry width="110" height="70" as="geometry" />
        </mxCell>
        <mxCell id="KajZSsTYk88KhPLmzA6E-13" value="&lt;font style=&quot;font-size: 9px;&quot;&gt;Terminal UI&lt;/font&gt;" style="strokeWidth=2;html=1;shape=mxgraph.flowchart.display;whiteSpace=wrap;" vertex="1" parent="KajZSsTYk88KhPLmzA6E-31">
          <mxGeometry x="22.5" y="12.5" width="65" height="45" as="geometry" />
        </mxCell>
        <mxCell id="KajZSsTYk88KhPLmzA6E-51" value="MPS" style="swimlane;swimlaneHead=0;swimlaneBody=0;connectable=0;fillColor=none;startSize=40;collapsible=0;recursiveResize=0;expand=0;fontStyle=1;" vertex="1" parent="3nuBFxr9cyL0pnOWT2aG-3">
          <mxGeometry x="332" width="292" height="202" as="geometry">
            <mxRectangle width="292" height="202" as="alternateBounds" />
          </mxGeometry>
        </mxCell>
        <mxCell id="3nuBFxr9cyL0pnOWT2aG-4" value="MES" style="swimlane;swimlaneHead=0;swimlaneBody=0;connectable=0;fillColor=none;startSize=40;collapsible=0;recursiveResize=0;expand=0;fontStyle=1;" parent="3nuBFxr9cyL0pnOWT2aG-3" vertex="1">
          <mxGeometry x="624" width="248" height="202" as="geometry">
            <mxRectangle width="248" height="202" as="alternateBounds" />
          </mxGeometry>
        </mxCell>
        <mxCell id="KajZSsTYk88KhPLmzA6E-32" value="" style="group" vertex="1" connectable="0" parent="3nuBFxr9cyL0pnOWT2aG-4">
          <mxGeometry x="110" y="50" width="110" height="70" as="geometry" />
        </mxCell>
        <mxCell id="KajZSsTYk88KhPLmzA6E-40" value="" style="group" vertex="1" connectable="0" parent="KajZSsTYk88KhPLmzA6E-32">
          <mxGeometry width="110" height="70" as="geometry" />
        </mxCell>
        <mxCell id="KajZSsTYk88KhPLmzA6E-33" value="" style="verticalLabelPosition=bottom;verticalAlign=top;html=1;shape=process;whiteSpace=wrap;rounded=1;size=0.14;arcSize=6;" vertex="1" parent="KajZSsTYk88KhPLmzA6E-40">
          <mxGeometry width="110" height="70" as="geometry" />
        </mxCell>
        <mxCell id="KajZSsTYk88KhPLmzA6E-34" value="&lt;font style=&quot;font-size: 9px;&quot;&gt;Terminal UI&lt;/font&gt;" style="strokeWidth=2;html=1;shape=mxgraph.flowchart.display;whiteSpace=wrap;" vertex="1" parent="KajZSsTYk88KhPLmzA6E-40">
          <mxGeometry x="22.5" y="12.5" width="65" height="45" as="geometry" />
        </mxCell>
        <mxCell id="3nuBFxr9cyL0pnOWT2aG-8" value="Modbus/PLC" style="swimlane;swimlaneHead=0;swimlaneBody=0;connectable=0;fillColor=none;startSize=40;collapsible=0;recursiveResize=0;expand=0;fontStyle=1;" parent="3nuBFxr9cyL0pnOWT2aG-3" vertex="1">
          <mxGeometry x="872" width="270" height="202" as="geometry">
            <mxRectangle width="270" height="202" as="alternateBounds" />
          </mxGeometry>
        </mxCell>
        <mxCell id="3nuBFxr9cyL0pnOWT2aG-15" value="Back-End" style="shape=tableRow;horizontal=0;swimlaneHead=0;swimlaneBody=0;top=0;left=0;bottom=0;right=0;fillColor=none;points=[[0,0.5],[1,0.5]];portConstraint=eastwest;startSize=40;collapsible=0;recursiveResize=0;expand=0;fontStyle=1;" parent="3nuBFxr9cyL0pnOWT2aG-1" vertex="1">
          <mxGeometry y="242" width="1142" height="198" as="geometry" />
        </mxCell>
        <mxCell id="KajZSsTYk88KhPLmzA6E-6" style="swimlane;swimlaneHead=0;swimlaneBody=0;connectable=0;fillColor=none;startSize=0;collapsible=0;recursiveResize=0;expand=0;fontStyle=1;" vertex="1" parent="3nuBFxr9cyL0pnOWT2aG-15">
          <mxGeometry x="40" width="292" height="198" as="geometry">
            <mxRectangle width="292" height="198" as="alternateBounds" />
          </mxGeometry>
        </mxCell>
        <mxCell id="KajZSsTYk88KhPLmzA6E-28" style="edgeStyle=orthogonalEdgeStyle;rounded=0;orthogonalLoop=1;jettySize=auto;html=1;" edge="1" parent="KajZSsTYk88KhPLmzA6E-6" source="KajZSsTYk88KhPLmzA6E-9" target="KajZSsTYk88KhPLmzA6E-27">
          <mxGeometry relative="1" as="geometry" />
        </mxCell>
        <mxCell id="KajZSsTYk88KhPLmzA6E-9" value="Process Orders&amp;nbsp;" style="shape=process;whiteSpace=wrap;html=1;backgroundOutline=1;" vertex="1" parent="KajZSsTYk88KhPLmzA6E-6">
          <mxGeometry x="20" y="10" width="120" height="60" as="geometry" />
        </mxCell>
        <mxCell id="KajZSsTYk88KhPLmzA6E-27" value="Process information" style="strokeWidth=2;html=1;shape=mxgraph.flowchart.start_1;whiteSpace=wrap;" vertex="1" parent="KajZSsTYk88KhPLmzA6E-6">
          <mxGeometry x="30" y="100" width="100" height="60" as="geometry" />
        </mxCell>
        <mxCell id="KajZSsTYk88KhPLmzA6E-52" style="swimlane;swimlaneHead=0;swimlaneBody=0;connectable=0;fillColor=none;startSize=0;collapsible=0;recursiveResize=0;expand=0;fontStyle=1;" vertex="1" parent="3nuBFxr9cyL0pnOWT2aG-15">
          <mxGeometry x="332" width="292" height="198" as="geometry">
            <mxRectangle width="292" height="198" as="alternateBounds" />
          </mxGeometry>
        </mxCell>
        <mxCell id="KajZSsTYk88KhPLmzA6E-19" value="Class Mps" style="shape=parallelogram;html=1;strokeWidth=2;perimeter=parallelogramPerimeter;whiteSpace=wrap;rounded=1;arcSize=12;size=0.23;" vertex="1" parent="KajZSsTYk88KhPLmzA6E-52">
          <mxGeometry x="148" y="100" width="100" height="60" as="geometry" />
        </mxCell>
        <mxCell id="3nuBFxr9cyL0pnOWT2aG-16" value="" style="swimlane;swimlaneHead=0;swimlaneBody=0;connectable=0;fillColor=none;startSize=0;collapsible=0;recursiveResize=0;expand=0;fontStyle=1;" parent="3nuBFxr9cyL0pnOWT2aG-15" vertex="1">
          <mxGeometry x="624" width="248" height="198" as="geometry">
            <mxRectangle width="248" height="198" as="alternateBounds" />
          </mxGeometry>
        </mxCell>
        <mxCell id="KajZSsTYk88KhPLmzA6E-46" style="edgeStyle=orthogonalEdgeStyle;rounded=0;orthogonalLoop=1;jettySize=auto;html=1;entryX=1;entryY=0.5;entryDx=0;entryDy=0;entryPerimeter=0;" edge="1" parent="3nuBFxr9cyL0pnOWT2aG-16" source="KajZSsTYk88KhPLmzA6E-35" target="KajZSsTYk88KhPLmzA6E-45">
          <mxGeometry relative="1" as="geometry" />
        </mxCell>
        <mxCell id="KajZSsTYk88KhPLmzA6E-35" value="OPC_UA" style="rounded=1;whiteSpace=wrap;html=1;absoluteArcSize=1;arcSize=14;strokeWidth=1;dashed=1;dashPattern=8 8;rotation=0;" vertex="1" parent="3nuBFxr9cyL0pnOWT2aG-16">
          <mxGeometry x="210" y="10" width="28" height="170" as="geometry" />
        </mxCell>
        <mxCell id="KajZSsTYk88KhPLmzA6E-45" value="Create Trajectory" style="strokeWidth=2;html=1;shape=mxgraph.flowchart.sequential_data;whiteSpace=wrap;" vertex="1" parent="3nuBFxr9cyL0pnOWT2aG-16">
          <mxGeometry x="48" y="45" width="100" height="100" as="geometry" />
        </mxCell>
        <mxCell id="3nuBFxr9cyL0pnOWT2aG-18" value="" style="swimlane;swimlaneHead=0;swimlaneBody=0;connectable=0;fillColor=none;startSize=0;collapsible=0;recursiveResize=0;expand=0;fontStyle=1;" parent="3nuBFxr9cyL0pnOWT2aG-15" vertex="1">
          <mxGeometry x="872" width="270" height="198" as="geometry">
            <mxRectangle width="270" height="198" as="alternateBounds" />
          </mxGeometry>
        </mxCell>
        <mxCell id="KajZSsTYk88KhPLmzA6E-43" style="edgeStyle=orthogonalEdgeStyle;rounded=0;orthogonalLoop=1;jettySize=auto;html=1;" edge="1" parent="3nuBFxr9cyL0pnOWT2aG-18" source="KajZSsTYk88KhPLmzA6E-42">
          <mxGeometry relative="1" as="geometry">
            <mxPoint x="-10" y="38" as="targetPoint" />
          </mxGeometry>
        </mxCell>
        <mxCell id="KajZSsTYk88KhPLmzA6E-42" value="Pice trajectory" style="strokeWidth=2;html=1;shape=mxgraph.flowchart.start_1;whiteSpace=wrap;" vertex="1" parent="3nuBFxr9cyL0pnOWT2aG-18">
          <mxGeometry x="20" y="8" width="100" height="60" as="geometry" />
        </mxCell>
        <mxCell id="KajZSsTYk88KhPLmzA6E-44" value="Pice status" style="strokeWidth=2;html=1;shape=mxgraph.flowchart.start_1;whiteSpace=wrap;" vertex="1" parent="3nuBFxr9cyL0pnOWT2aG-18">
          <mxGeometry x="20" y="78" width="100" height="60" as="geometry" />
        </mxCell>
        <mxCell id="KajZSsTYk88KhPLmzA6E-22" value="&lt;font style=&quot;font-size: 11px;&quot;&gt;Stock Warehouse&lt;/font&gt;" style="strokeWidth=2;html=1;shape=mxgraph.flowchart.document2;whiteSpace=wrap;size=0.25;" vertex="1" parent="3nuBFxr9cyL0pnOWT2aG-18">
          <mxGeometry x="200" y="18" width="50" height="62" as="geometry" />
        </mxCell>
        <mxCell id="KajZSsTYk88KhPLmzA6E-18" value="Time of job" style="strokeWidth=2;html=1;shape=mxgraph.flowchart.document2;whiteSpace=wrap;size=0.25;" vertex="1" parent="3nuBFxr9cyL0pnOWT2aG-18">
          <mxGeometry x="200" y="98" width="50" height="60" as="geometry" />
        </mxCell>
        <mxCell id="KajZSsTYk88KhPLmzA6E-30" value="" style="edgeStyle=orthogonalEdgeStyle;rounded=0;orthogonalLoop=1;jettySize=auto;html=1;" edge="1" parent="3nuBFxr9cyL0pnOWT2aG-15" source="KajZSsTYk88KhPLmzA6E-27" target="KajZSsTYk88KhPLmzA6E-19">
          <mxGeometry relative="1" as="geometry" />
        </mxCell>
        <mxCell id="KajZSsTYk88KhPLmzA6E-36" value="Database" style="shape=tableRow;horizontal=0;swimlaneHead=0;swimlaneBody=0;top=0;left=0;bottom=0;right=0;fillColor=none;points=[[0,0.5],[1,0.5]];portConstraint=eastwest;startSize=40;collapsible=0;recursiveResize=0;expand=0;fontStyle=1;" vertex="1" parent="3nuBFxr9cyL0pnOWT2aG-1">
          <mxGeometry y="440" width="1142" height="198" as="geometry" />
        </mxCell>
        <mxCell id="KajZSsTYk88KhPLmzA6E-37" style="swimlane;swimlaneHead=0;swimlaneBody=0;connectable=0;fillColor=none;startSize=0;collapsible=0;recursiveResize=0;expand=0;fontStyle=1;" vertex="1" parent="KajZSsTYk88KhPLmzA6E-36">
          <mxGeometry x="40" width="292" height="198" as="geometry">
            <mxRectangle width="292" height="198" as="alternateBounds" />
          </mxGeometry>
        </mxCell>
        <mxCell id="KajZSsTYk88KhPLmzA6E-53" style="swimlane;swimlaneHead=0;swimlaneBody=0;connectable=0;fillColor=none;startSize=0;collapsible=0;recursiveResize=0;expand=0;fontStyle=1;" vertex="1" parent="KajZSsTYk88KhPLmzA6E-36">
          <mxGeometry x="332" width="292" height="198" as="geometry">
            <mxRectangle width="292" height="198" as="alternateBounds" />
          </mxGeometry>
        </mxCell>
        <mxCell id="KajZSsTYk88KhPLmzA6E-16" value="&lt;br&gt;MPS&lt;br&gt;Data" style="strokeWidth=2;html=1;shape=mxgraph.flowchart.database;whiteSpace=wrap;" vertex="1" parent="KajZSsTYk88KhPLmzA6E-53">
          <mxGeometry x="163" y="30" width="70" height="50" as="geometry" />
        </mxCell>
        <mxCell id="KajZSsTYk88KhPLmzA6E-38" style="swimlane;swimlaneHead=0;swimlaneBody=0;connectable=0;fillColor=none;startSize=0;collapsible=0;recursiveResize=0;expand=0;fontStyle=1;" vertex="1" parent="KajZSsTYk88KhPLmzA6E-36">
          <mxGeometry x="624" width="248" height="198" as="geometry">
            <mxRectangle width="248" height="198" as="alternateBounds" />
          </mxGeometry>
        </mxCell>
        <mxCell id="KajZSsTYk88KhPLmzA6E-39" style="swimlane;swimlaneHead=0;swimlaneBody=0;connectable=0;fillColor=none;startSize=0;collapsible=0;recursiveResize=0;expand=0;fontStyle=1;" vertex="1" parent="KajZSsTYk88KhPLmzA6E-36">
          <mxGeometry x="872" width="270" height="198" as="geometry">
            <mxRectangle width="270" height="198" as="alternateBounds" />
          </mxGeometry>
        </mxCell>
        <mxCell id="KajZSsTYk88KhPLmzA6E-23" value="Factory&lt;br&gt;Data" style="strokeWidth=2;html=1;shape=mxgraph.flowchart.database;whiteSpace=wrap;" vertex="1" parent="KajZSsTYk88KhPLmzA6E-39">
          <mxGeometry x="100" y="59" width="50" height="80" as="geometry" />
        </mxCell>
        <mxCell id="KajZSsTYk88KhPLmzA6E-29" style="edgeStyle=orthogonalEdgeStyle;rounded=0;orthogonalLoop=1;jettySize=auto;html=1;entryX=0.5;entryY=1;entryDx=0;entryDy=0;entryPerimeter=0;" edge="1" parent="3nuBFxr9cyL0pnOWT2aG-1" source="KajZSsTYk88KhPLmzA6E-23" target="KajZSsTYk88KhPLmzA6E-27">
          <mxGeometry relative="1" as="geometry" />
        </mxCell>
        <mxCell id="KajZSsTYk88KhPLmzA6E-20" style="edgeStyle=orthogonalEdgeStyle;rounded=0;orthogonalLoop=1;jettySize=auto;html=1;" edge="1" parent="3nuBFxr9cyL0pnOWT2aG-1" source="KajZSsTYk88KhPLmzA6E-16" target="KajZSsTYk88KhPLmzA6E-19">
          <mxGeometry relative="1" as="geometry" />
        </mxCell>
        <mxCell id="KajZSsTYk88KhPLmzA6E-49" style="edgeStyle=orthogonalEdgeStyle;rounded=0;orthogonalLoop=1;jettySize=auto;html=1;" edge="1" parent="3nuBFxr9cyL0pnOWT2aG-1" source="KajZSsTYk88KhPLmzA6E-16" target="KajZSsTYk88KhPLmzA6E-45">
          <mxGeometry relative="1" as="geometry" />
        </mxCell>
        <mxCell id="KajZSsTYk88KhPLmzA6E-50" value="Current Day" style="edgeLabel;html=1;align=center;verticalAlign=middle;resizable=0;points=[];" vertex="1" connectable="0" parent="KajZSsTYk88KhPLmzA6E-49">
          <mxGeometry x="-0.202" y="-2" relative="1" as="geometry">
            <mxPoint as="offset" />
          </mxGeometry>
        </mxCell>
        <mxCell id="KajZSsTYk88KhPLmzA6E-24" style="edgeStyle=orthogonalEdgeStyle;rounded=0;orthogonalLoop=1;jettySize=auto;html=1;entryX=1;entryY=0.5;entryDx=0;entryDy=0;entryPerimeter=0;" edge="1" parent="3nuBFxr9cyL0pnOWT2aG-1" source="KajZSsTYk88KhPLmzA6E-22" target="KajZSsTYk88KhPLmzA6E-23">
          <mxGeometry relative="1" as="geometry" />
        </mxCell>
        <mxCell id="KajZSsTYk88KhPLmzA6E-25" style="edgeStyle=orthogonalEdgeStyle;rounded=0;orthogonalLoop=1;jettySize=auto;html=1;entryX=1;entryY=0.5;entryDx=0;entryDy=0;entryPerimeter=0;" edge="1" parent="3nuBFxr9cyL0pnOWT2aG-1" source="KajZSsTYk88KhPLmzA6E-18" target="KajZSsTYk88KhPLmzA6E-23">
          <mxGeometry relative="1" as="geometry" />
        </mxCell>
        <mxCell id="KajZSsTYk88KhPLmzA6E-11" value="Client Server" style="shape=providedRequiredInterface;html=1;verticalLabelPosition=bottom;sketch=0;" vertex="1" parent="1">
          <mxGeometry x="-150" y="310" width="20" height="20" as="geometry" />
        </mxCell>
        <mxCell id="KajZSsTYk88KhPLmzA6E-10" style="edgeStyle=orthogonalEdgeStyle;rounded=0;orthogonalLoop=1;jettySize=auto;html=1;dashed=1;entryX=1;entryY=0.5;entryDx=0;entryDy=0;entryPerimeter=0;startArrow=classic;startFill=1;endArrow=none;endFill=0;" edge="1" parent="1" source="KajZSsTYk88KhPLmzA6E-9" target="KajZSsTYk88KhPLmzA6E-11">
          <mxGeometry relative="1" as="geometry">
            <mxPoint x="-30" y="319.9999999999999" as="targetPoint" />
          </mxGeometry>
        </mxCell>
        <mxCell id="KajZSsTYk88KhPLmzA6E-12" value="UDP Connection" style="edgeLabel;html=1;align=center;verticalAlign=middle;resizable=0;points=[];" vertex="1" connectable="0" parent="KajZSsTYk88KhPLmzA6E-10">
          <mxGeometry x="0.2718" y="-1" relative="1" as="geometry">
            <mxPoint as="offset" />
          </mxGeometry>
        </mxCell>
      </root>
    </mxGraphModel>
  </diagram>
</mxfile>
